# xmcd
#
# Track frame offsets: 
#        150
#        11959
#        23030
#        33723
#        47092
#        58729
#        73854
#        86135
#        100228
#        112109
#        124564
#        137893
#        149210
#        161470
#
# Disc length: 2392 seconds
#
# Revision: 0
# Processed by: cddbd v1.5.2PL0 Copyright (c) Steve Scherf et al.
# Submitted via: ExactAudioCopy v1.0b4
#
DISCID=d509560e
DTITLE=Little Milton - His Greatest Sides (LP)
DYEAR=1984
DGENRE=Blues
TTITLE0=Grits Ain't Groceries
TTITLE1=I Play Dirty
TTITLE2=Just A Little Bit
TTITLE3=Who's Cheating Who?
TTITLE4=Losing Hand
TTITLE5=Blind Man
TTITLE6=More And More
TTITLE7=If Walls Could Talk
TTITLE8=Were Gonna Make It
TTITLE9=Baby I Love You
TTITLE10=Man Loves Two
TTITLE11=So Mean To Me
TTITLE12=Without My Sweet Baby
TTITLE13=Feel So Bad
EXTD=
EXTT0=
EXTT1=
EXTT2=
EXTT3=
EXTT4=
EXTT5=
EXTT6=
EXTT7=
EXTT8=
EXTT9=
EXTT10=
EXTT11=
EXTT12=
EXTT13=
PLAYORDER=
